<svg width="24" height="24" xmlns="http://www.w3.org/2000/svg">

 <g>
  <title>background</title>
  <rect fill="none" id="canvas_background" height="402" width="582" y="-1" x="-1"/>
 </g>
 <g>
  <title>Layer 1</title>
  <path fill="#ff7878" id="svg_1" d="m12,0c-6.627,0 -12,5.373 -12,12s5.373,12 12,12s12,-5.373 12,-12s-5.373,-12 -12,-12zm6.066,9.645c0.183,4.04 -2.83,8.544 -8.164,8.544c-1.622,0 -3.131,-0.476 -4.402,-1.291c1.524,0.18 3.045,-0.244 4.252,-1.189c-1.256,-0.023 -2.317,-0.854 -2.684,-1.995c0.451,0.086 0.895,0.061 1.298,-0.049c-1.381,-0.278 -2.335,-1.522 -2.304,-2.853c0.388,0.215 0.83,0.344 1.301,0.359c-1.279,-0.855 -1.641,-2.544 -0.889,-3.835c1.416,1.738 3.533,2.881 5.92,3.001c-0.419,-1.796 0.944,-3.527 2.799,-3.527c0.825,0 1.572,0.349 2.096,0.907c0.654,-0.128 1.27,-0.368 1.824,-0.697c-0.215,0.671 -0.67,1.233 -1.263,1.589c0.581,-0.07 1.135,-0.224 1.649,-0.453c-0.384,0.578 -0.87,1.084 -1.433,1.489z"/>
 </g>
</svg>