<svg width="24" height="24" xmlns="http://www.w3.org/2000/svg">

 <g>
  <title>background</title>
  <rect fill="none" id="canvas_background" height="402" width="582" y="-1" x="-1"/>
 </g>
 <g>
  <title>Layer 1</title>
  <path fill="#ff7878" id="svg_1" d="m14.829,6.302c-0.738,-0.034 -0.96,-0.04 -2.829,-0.04s-2.09,0.007 -2.828,0.04c-1.899,0.087 -2.783,0.986 -2.87,2.87c-0.033,0.738 -0.041,0.959 -0.041,2.828s0.008,2.09 0.041,2.829c0.087,1.879 0.967,2.783 2.87,2.87c0.737,0.033 0.959,0.041 2.828,0.041c1.87,0 2.091,-0.007 2.829,-0.041c1.899,-0.086 2.782,-0.988 2.87,-2.87c0.033,-0.738 0.04,-0.96 0.04,-2.829s-0.007,-2.09 -0.04,-2.828c-0.088,-1.883 -0.973,-2.783 -2.87,-2.87zm-2.829,9.293c-1.985,0 -3.595,-1.609 -3.595,-3.595c0,-1.985 1.61,-3.594 3.595,-3.594s3.595,1.609 3.595,3.594c0,1.985 -1.61,3.595 -3.595,3.595zm3.737,-6.491c-0.464,0 -0.84,-0.376 -0.84,-0.84c0,-0.464 0.376,-0.84 0.84,-0.84c0.464,0 0.84,0.376 0.84,0.84c0,0.463 -0.376,0.84 -0.84,0.84zm-1.404,2.896c0,1.289 -1.045,2.333 -2.333,2.333s-2.333,-1.044 -2.333,-2.333c0,-1.289 1.045,-2.333 2.333,-2.333s2.333,1.044 2.333,2.333zm-2.333,-12c-6.627,0 -12,5.373 -12,12s5.373,12 12,12s12,-5.373 12,-12s-5.373,-12 -12,-12zm6.958,14.886c-0.115,2.545 -1.532,3.955 -4.071,4.072c-0.747,0.034 -0.986,0.042 -2.887,0.042s-2.139,-0.008 -2.886,-0.042c-2.544,-0.117 -3.955,-1.529 -4.072,-4.072c-0.034,-0.746 -0.042,-0.985 -0.042,-2.886c0,-1.901 0.008,-2.139 0.042,-2.886c0.117,-2.544 1.529,-3.955 4.072,-4.071c0.747,-0.035 0.985,-0.043 2.886,-0.043s2.14,0.008 2.887,0.043c2.545,0.117 3.957,1.532 4.071,4.071c0.034,0.747 0.042,0.985 0.042,2.886c0,1.901 -0.008,2.14 -0.042,2.886z"/>
 </g>
</svg>