<svg width="24" height="24" xmlns="http://www.w3.org/2000/svg">

 <g>
  <title>background</title>
  <rect fill="none" id="canvas_background" height="402" width="582" y="-1" x="-1"/>
 </g>
 <g>
  <title>Layer 1</title>
  <path fill="#ff7878" id="svg_1" d="m12,0c-6.627,0 -12,5.373 -12,12s5.373,12 12,12s12,-5.373 12,-12s-5.373,-12 -12,-12zm-2,16l-2,0l0,-6l2,0l0,6zm-1,-6.891c-0.607,0 -1.1,-0.496 -1.1,-1.109c0,-0.612 0.492,-1.109 1.1,-1.109s1.1,0.497 1.1,1.109c0,0.613 -0.493,1.109 -1.1,1.109zm8,6.891l-1.998,0l0,-2.861c0,-1.881 -2.002,-1.722 -2.002,0l0,2.861l-2,0l0,-6l2,0l0,1.093c0.872,-1.616 4,-1.736 4,1.548l0,3.359z"/>
 </g>
</svg>